# xmcd CD database file
#
# Track frame offsets:
#	150
#	14645
#	50081
#	71822
#	91384
#	108780
#	125384
#	151695
#	173318
#	193544
#	217266
#	234227
#	262589
#	286500
#	316767
#	329961
#
# Disc length: 4727 seconds
#
# Revision: 4
# Processed by: cddbd v1.5.2PL0 Copyright (c) Steve Scherf et al.
# Submitted via: CDex 1.50
#
DISCID=d5127510
DTITLE=David Baldacci - Der Abgrund CD05
DYEAR=2003
DGENRE=Hörbuch
TTITLE0=Der Abgrund 501
TTITLE1=Der Abgrund 502
TTITLE2=Der Abgrund 503
TTITLE3=Der Abgrund 504
TTITLE4=Der Abgrund 505
TTITLE5=Der Abgrund 506
TTITLE6=Der Abgrund 507
TTITLE7=Der Abgrund 508
TTITLE8=Der Abgrund 509
TTITLE9=Der Abgrund 510
TTITLE10=Der Abgrund 511
TTITLE11=Der Abgrund 512
TTITLE12=Der Abgrund 513
TTITLE13=Der Abgrund 514
TTITLE14=Der Abgrund 515
TTITLE15=Der Abgrund 516
EXTD=YEAR: 2003
EXTT0=
EXTT1=
EXTT2=
EXTT3=
EXTT4=
EXTT5=
EXTT6=
EXTT7=
EXTT8=
EXTT9=
EXTT10=
EXTT11=
EXTT12=
EXTT13=
EXTT14=
EXTT15=
PLAYORDER=
